<svg width="140" height="140" viewBox="0 0 140 140" fill="none" xmlns="http://www.w3.org/2000/svg">
<rect width="140" height="140" rx="70" fill="url(#paint0_linear_11_6)"/>
<path d="M22.3338 92V91.36L24.4458 90.72C25.2138 90.5067 25.7684 90.1013 26.1098 89.504C26.4511 88.864 26.6218 88.1173 26.6218 87.264V56.48C26.1524 55.456 25.7684 54.688 25.4698 54.176C25.2138 53.664 24.9151 53.2373 24.5738 52.896C24.2324 52.512 23.7631 52.0427 23.1658 51.488L22.0778 50.4V49.76H33.4058L54.6538 78.752V54.624C54.6538 53.7707 54.5044 53.0027 54.2058 52.32C53.9498 51.6373 53.3951 51.1893 52.5418 50.976L50.4298 50.4V49.76H59.5818V50.4L57.8538 50.976C57.0858 51.232 56.6164 51.68 56.4458 52.32C56.2751 52.96 56.1898 53.7067 56.1898 54.56V92.192H52.6058L28.1578 58.592V87.264C28.1578 88.1173 28.2858 88.8427 28.5417 89.44C28.7978 90.0373 29.3311 90.464 30.1418 90.72L32.0618 91.36V92H22.3338ZM69.4288 56.928C67.9781 56.928 66.7408 56.48 65.7168 55.584C64.7354 54.6453 64.2448 53.472 64.2448 52.064C64.2448 50.6133 64.7354 49.44 65.7168 48.544C66.7408 47.648 67.9781 47.2 69.4288 47.2C70.8794 47.2 72.0954 47.648 73.0768 48.544C74.0581 49.44 74.5488 50.6133 74.5488 52.064C74.5488 53.472 74.0581 54.6453 73.0768 55.584C72.0954 56.48 70.8794 56.928 69.4288 56.928ZM61.8768 92V91.36L62.7728 91.104C63.6261 90.848 64.2021 90.464 64.5008 89.952C64.8421 89.44 65.0128 88.7573 65.0128 87.904V67.872C65.0128 66.976 64.8421 66.3147 64.5008 65.888C64.2021 65.4187 63.6261 65.0987 62.7728 64.928L61.8768 64.736V64.096L73.5888 60.32L74.2288 60.96L74.0368 70.048V87.968C74.0368 88.8213 74.1861 89.504 74.4848 90.016C74.8261 90.528 75.4021 90.912 76.2128 91.168L76.8528 91.36V92H61.8768ZM79.8143 92V91.36L81.1583 90.848C82.5236 90.2933 83.2063 89.2053 83.2063 87.584V54.176C83.2063 52.4693 82.5236 51.3813 81.1583 50.912L79.8143 50.4V49.76H96.7103C101.233 49.76 105.116 50.6133 108.358 52.32C111.644 53.984 114.161 56.3947 115.91 59.552C117.702 62.6667 118.598 66.4213 118.598 70.816C118.598 75.296 117.638 79.1147 115.718 82.272C113.798 85.4293 111.11 87.84 107.654 89.504C104.241 91.168 100.209 92 95.5583 92H79.8143ZM92.8063 90.72H95.5583C98.6303 90.72 101.105 90.1227 102.982 88.928C104.86 87.6907 106.225 85.6427 107.078 82.784C107.974 79.8827 108.422 75.9147 108.422 70.88C108.422 65.8453 107.974 61.8987 107.078 59.04C106.225 56.1387 104.881 54.0907 103.046 52.896C101.212 51.6587 98.8009 51.04 95.8143 51.04H92.8063V90.72Z" fill="white"/>
<defs>
<linearGradient id="paint0_linear_11_6" x1="0" y1="0" x2="140" y2="140" gradientUnits="userSpaceOnUse">
<stop stop-color="#EEEEEE"/>
<stop offset="0.447115"/>
<stop offset="1" stop-color="#6D6D6D"/>
</linearGradient>
</defs>
</svg>
